<svg width="800" height="800" viewBox="0 0 800 800" fill="none" xmlns="http://www.w3.org/2000/svg">
<path d="M300 687.5C292.583 687.5 285.333 685.301 279.166 681.18C272.999 677.06 268.192 671.203 265.354 664.351C262.516 657.498 261.773 649.958 263.22 642.684C264.667 635.41 268.239 628.728 273.483 623.483L496.967 400L273.483 176.517C266.459 169.482 262.515 159.947 262.518 150.005C262.522 140.064 266.472 130.531 273.502 123.502C280.531 116.472 290.064 112.522 300.005 112.518C309.947 112.515 319.482 116.459 326.517 123.483L576.517 373.483C583.549 380.516 587.5 390.054 587.5 400C587.5 409.946 583.549 419.484 576.517 426.517L326.517 676.517C323.038 680.004 318.905 682.77 314.354 684.655C309.804 686.539 304.926 687.506 300 687.5Z" fill="black"/>
</svg>
