<svg width="800" height="800" viewBox="0 0 800 800" fill="none" xmlns="http://www.w3.org/2000/svg">
<path fill-rule="evenodd" clip-rule="evenodd" d="M600 200V600H200V200H600ZM368.358 300H329.403L255.444 500H290.588L304.552 460.902H393.086L406.749 500H444.011L368.358 300ZM506.397 300H471.393V500H506.397V300ZM348.586 333.555L383.452 433.333H314.274L348.586 333.555ZM633.333 500H700V566.667H633.333V500ZM233.333 633.333H300V700H233.333V633.333ZM366.667 633.333H433.333V700H366.667V633.333ZM233.333 100H300V166.667H233.333V100ZM500 633.333H566.667V700H500V633.333ZM366.667 100H433.333V166.667H366.667V100ZM500 100H566.667V166.667H500V100ZM633.333 366.667H700V433.333H633.333V366.667ZM100 500H166.667V566.667H100V500ZM633.333 233.333H700V300H633.333V233.333ZM100 366.667H166.667V433.333H100V366.667ZM100 233.333H166.667V300H100V233.333Z" fill="#A94A4A"/>
</svg>
