<svg width="800" height="800" viewBox="0 0 800 800" fill="none" xmlns="http://www.w3.org/2000/svg">
<path d="M732.333 611C732.333 623 729.667 635.333 724 647.333C718.333 659.333 711 670.667 701.333 681.333C685 699.333 667 712.333 646.667 720.667C626.667 729 605 733.333 581.667 733.333C547.667 733.333 511.333 725.333 473 709C434.667 692.667 396.333 670.667 358.333 643C320 615 283.667 584 249 549.667C214.667 515 183.667 478.667 156 440.667C128.667 402.667 106.667 364.667 90.6667 327C74.6667 289 66.6667 252.667 66.6667 218C66.6667 195.333 70.6667 173.667 78.6667 153.667C86.6667 133.333 99.3334 114.667 117 98.0001C138.333 77.0001 161.667 66.6667 186.333 66.6667C195.667 66.6667 205 68.6668 213.333 72.6668C222 76.6667 229.667 82.6667 235.667 91.3334L313 200.333C319 208.667 323.333 216.333 326.333 223.667C329.333 230.667 331 237.667 331 244C331 252 328.667 260 324 267.667C319.667 275.333 313.333 283.333 305.333 291.333L280 317.667C276.333 321.333 274.667 325.667 274.667 331C274.667 333.667 275 336 275.667 338.667C276.667 341.333 277.667 343.333 278.333 345.333C284.333 356.333 294.667 370.667 309.333 388C324.333 405.333 340.333 423 357.667 440.667C375.667 458.333 393 474.667 410.667 489.667C428 504.333 442.333 514.333 453.667 520.333C455.333 521 457.333 522 459.667 523C462.333 524 465 524.333 468 524.333C473.667 524.333 478 522.333 481.667 518.667L507 493.667C515.333 485.333 523.333 479 531 475C538.667 470.333 546.333 468 554.667 468C561 468 567.667 469.333 575 472.333C582.333 475.333 590 479.667 598.333 485.333L708.667 563.667C717.333 569.667 723.333 576.667 727 585C730.333 593.333 732.333 601.667 732.333 611Z" stroke="#A94A4A" stroke-width="50" stroke-miterlimit="10"/>
</svg>
