<svg width="800" height="800" viewBox="0 0 800 800" fill="none" xmlns="http://www.w3.org/2000/svg">
<path d="M300 200C300 213.132 302.587 226.136 307.612 238.268C312.638 250.401 320.003 261.425 329.289 270.711C338.577 279.997 349.6 287.362 361.733 292.388C373.863 297.413 386.867 300 400 300C413.133 300 426.137 297.413 438.27 292.388C450.4 287.362 461.423 279.997 470.71 270.711C479.997 261.425 487.363 250.401 492.387 238.268C497.413 226.136 500 213.132 500 200C500 186.868 497.413 173.864 492.387 161.732C487.363 149.599 479.997 138.575 470.71 129.289C461.423 120.003 450.4 112.637 438.267 107.612C426.137 102.587 413.133 100 400 100C386.867 100 373.863 102.587 361.73 107.612C349.6 112.638 338.577 120.003 329.289 129.289C320.003 138.575 312.637 149.599 307.612 161.732C302.587 173.864 300 186.868 300 200Z" stroke="white" stroke-width="66.6667"/>
<path d="M147.927 463.383C136.554 469.95 126.586 478.69 118.592 489.11C110.597 499.527 104.733 511.42 101.335 524.103C97.9357 536.79 97.0687 550.02 98.7827 563.04C100.497 576.06 104.758 588.613 111.325 599.987C117.891 611.36 126.632 621.327 137.051 629.32C147.469 637.317 159.36 643.18 172.045 646.58C184.73 649.977 197.96 650.843 210.98 649.13C224 647.417 236.554 643.153 247.927 636.59C259.3 630.023 269.268 621.28 277.262 610.863C285.257 600.443 291.121 588.553 294.52 575.867C297.919 563.183 298.786 549.953 297.072 536.933C295.357 523.913 291.096 511.36 284.53 499.987C277.964 488.613 269.222 478.647 258.803 470.65C248.385 462.657 236.494 456.793 223.809 453.393C211.124 449.993 197.894 449.127 184.874 450.84C171.855 452.557 159.3 456.817 147.927 463.383Z" stroke="white" stroke-width="66.6667"/>
<path d="M652.073 463.383C663.447 469.95 673.413 478.69 681.407 489.11C689.403 499.53 695.267 511.42 698.667 524.103C702.063 536.79 702.93 550.02 701.217 563.04C699.504 576.06 695.24 588.613 688.677 599.987C682.11 611.36 673.367 621.327 662.95 629.32C652.53 637.317 640.64 643.18 627.953 646.58C615.27 649.977 602.04 650.843 589.02 649.13C576 647.417 563.447 643.153 552.074 636.59C540.7 630.023 530.733 621.28 522.737 610.863C514.743 600.443 508.88 588.553 505.48 575.867C502.08 563.183 501.213 549.953 502.93 536.933C504.643 523.913 508.903 511.36 515.47 499.987C522.037 488.613 530.78 478.647 541.197 470.65C551.617 462.657 563.507 456.793 576.19 453.393C588.877 449.993 602.107 449.127 615.127 450.84C628.147 452.557 640.7 456.817 652.073 463.383Z" stroke="white" stroke-width="66.6667"/>
<path fill-rule="evenodd" clip-rule="evenodd" d="M302.321 221.44C300.78 214.418 299.998 207.233 299.998 200.01C299.998 186.878 302.584 173.874 307.61 161.742C310 155.971 312.92 150.451 316.324 145.249C305.776 148.313 295.383 151.96 285.195 156.18C248.797 171.256 215.725 193.354 187.868 221.211C160.01 249.069 137.912 282.141 122.836 318.539C107.76 354.937 100 393.947 100 433.343C100 457.517 102.922 481.547 108.663 504.917C111.465 499.367 114.786 494.077 118.589 489.12C126.584 478.7 136.552 469.96 147.925 463.393C154.18 459.783 160.794 456.867 167.645 454.69C166.994 447.607 166.667 440.483 166.667 433.343C166.667 402.703 172.702 372.36 184.428 344.05C196.154 315.741 213.341 290.019 235.008 268.352C254.516 248.844 277.311 232.968 302.321 221.44ZM497.677 221.438C522.687 232.967 545.483 248.843 564.99 268.352C586.66 290.019 603.847 315.741 615.573 344.05C627.297 372.36 633.333 402.7 633.333 433.343C633.333 440.483 633.007 447.607 632.353 454.693C639.203 456.87 645.817 459.783 652.07 463.393C663.443 469.96 673.41 478.7 681.407 489.12C685.21 494.077 688.533 499.37 691.337 504.92C697.077 481.55 700 457.52 700 433.343C700 393.947 692.24 354.937 677.163 318.538C662.087 282.141 639.99 249.069 612.133 221.211C584.273 193.354 551.203 171.256 514.803 156.179C504.617 151.959 494.22 148.312 483.67 145.247C487.073 150.449 489.997 155.97 492.387 161.742C497.41 173.874 499.997 186.878 499.997 200.01C499.997 207.233 499.217 214.416 497.677 221.438ZM607.677 649.84C601.463 650.187 595.217 649.957 589.017 649.14C575.997 647.427 563.443 643.163 552.07 636.6C545.82 632.99 539.993 628.723 534.683 623.88C520.563 633.863 505.343 642.267 489.293 648.917C460.983 660.64 430.643 666.677 400 666.677C369.357 666.677 339.017 660.64 310.707 648.917C294.655 642.267 279.435 633.86 265.314 623.88C260.005 628.72 254.177 632.99 247.925 636.6C236.552 643.163 223.997 647.427 210.977 649.14C204.78 649.957 198.535 650.187 192.323 649.84C219.227 675.647 250.719 696.227 285.195 710.507C321.593 725.583 360.603 733.343 400 733.343C439.397 733.343 478.407 725.583 514.807 710.507C549.28 696.227 580.773 675.647 607.677 649.84Z" fill="white"/>
</svg>
