<svg width="800" height="800" viewBox="0 0 800 800" fill="none" xmlns="http://www.w3.org/2000/svg">
<path fill-rule="evenodd" clip-rule="evenodd" d="M650 400C650 538.07 538.07 650 400 650C261.929 650 150 538.07 150 400C150 261.929 261.929 150 400 150C538.07 150 650 261.929 650 400ZM700 400C700 565.687 565.687 700 400 700C234.315 700 100 565.687 100 400C100 234.315 234.315 100 400 100C565.687 100 700 234.315 700 400ZM312.5 350C333.211 350 350 333.211 350 312.5C350 291.789 333.211 275 312.5 275C291.789 275 275 291.789 275 312.5C275 333.211 291.789 350 312.5 350ZM525 312.5C525 333.211 508.21 350 487.5 350C466.79 350 450 333.211 450 312.5C450 291.789 466.79 275 487.5 275C508.21 275 525 291.789 525 312.5ZM400 500C339.277 500 300 461.503 300 425H250C250 498.953 322.651 550 400 550C477.35 550 550 498.953 550 425H500C500 461.503 460.723 500 400 500Z" fill="#A94A4A"/>
</svg>
