<svg width="800" height="800" viewBox="0 0 800 800" fill="none" xmlns="http://www.w3.org/2000/svg">
<path d="M524.212 157.065L449.237 64.448C442.405 56.0079 430.802 53.7383 421.456 58.3352C412.11 53.7369 400.507 56.0092 393.676 64.448L318.701 157.063C313.738 163.192 312.295 171.448 314.881 178.897L355.74 296.646V449.389L278.943 531.964C272.071 539.353 269.427 549.728 271.922 559.507C274.419 569.284 281.714 577.121 291.287 580.312C433.522 627.716 423.54 624.661 427.893 625.2V714.334C427.893 730.718 441.174 743.999 457.557 743.999C473.942 743.999 487.222 730.717 487.222 714.334C487.222 318.204 486.685 550.279 486.685 298.042L528.031 178.898C530.617 171.45 529.173 163.194 524.212 157.065ZM427.894 563.301L353.796 538.606C412.089 475.925 408.176 480.403 410.259 477.213H427.896L427.894 563.301ZM449.852 265.019H393.064L378.201 222.184C387.286 236.505 403.27 246.017 421.484 246.017C439.622 246.017 455.549 236.583 464.654 222.363L449.852 265.019ZM472.468 199.835C472.63 198.172 472.718 196.486 472.718 194.78C472.718 166.483 449.779 143.543 421.48 143.543C393.184 143.543 370.243 166.482 370.243 194.78C370.243 196.552 370.333 198.305 370.509 200.03L362.142 175.919L421.455 102.652L480.765 175.919L472.468 199.835Z" fill="white"/>
</svg>
