<svg width="800" height="800" viewBox="0 0 800 800" fill="none" xmlns="http://www.w3.org/2000/svg">
<path d="M200 566.667C200 566.667 200 700 300 700H500C400 700 400 566.667 400 566.667M200 233.333C200 233.333 200 100 300 100H500C400 100 400 233.333 400 233.333M500 100.113C500 100.113 666.667 85.119 666.667 400C666.667 714.88 500 699.887 500 699.887M300 333.333V400L350 450M240 566.667H360C397.337 566.667 416.007 566.667 430.267 559.4C442.81 553.01 453.01 542.81 459.4 530.267C466.667 516.007 466.667 497.337 466.667 460V340C466.667 302.663 466.667 283.995 459.4 269.734C453.01 257.19 442.81 246.991 430.267 240.6C416.007 233.333 397.337 233.333 360 233.333H240C202.663 233.333 183.995 233.333 169.734 240.6C157.19 246.991 146.991 257.19 140.6 269.734C133.333 283.995 133.333 302.663 133.333 340V460C133.333 497.337 133.333 516.007 140.6 530.267C146.991 542.81 157.19 553.01 169.734 559.4C183.995 566.667 202.663 566.667 240 566.667Z" stroke="#A94A4A" stroke-width="66.6667" stroke-linecap="round" stroke-linejoin="round"/>
</svg>
