<svg width="408" height="406" viewBox="0 0 408 406" fill="none" xmlns="http://www.w3.org/2000/svg">
<g clip-path="url(#clip0_27_18)">
<path d="M128.46 202.99C140.017 202.94 151.617 202.684 163.168 203.062L163.641 364.773C190.719 364.702 217.903 365.109 244.968 364.444C244.43 344.317 244.801 324.065 244.702 303.926L285.215 303.872L285.344 351.369L285.55 405.319C231.424 404.887 177.247 405.507 123.118 405.733C123.466 391.358 123.218 376.947 123.16 362.568L122.974 299.412L122.77 239.138C122.738 227.148 122.936 215.119 122.542 203.137L128.46 202.99Z" fill="url(#paint0_linear_27_18)"/>
<path d="M121.945 0.475915L284.249 -6.10352e-05L284.865 202.812L244.45 202.948L244.354 182.164L243.988 41.0256L162.606 41.28L162.817 101.872C149.336 101.707 135.831 101.898 122.347 101.946C121.568 68.1755 122.129 34.2644 121.945 0.475915Z" fill="url(#paint1_linear_27_18)"/>
<path d="M304.98 121.627L372.312 121.421C383.865 121.386 395.488 121.092 407.034 121.518L407.494 283.108L245.984 283.575L204.02 283.72L203.849 243.18C233.91 243.529 264.027 243.074 294.094 242.999C318.146 242.939 342.315 243.389 366.353 242.695C365.707 215.829 366.111 188.832 366.071 161.952L305.138 162.133L304.98 121.627Z" fill="url(#paint2_linear_27_18)"/>
<path d="M0.000366211 122.472C20.8354 122.928 41.7853 122.445 62.6309 122.386L203.552 122.014L203.689 162.469L41.2134 162.98L41.3243 183.186L41.5084 243.875C48.5635 243.173 56.1183 243.648 63.2294 243.627C76.3065 243.543 89.3832 243.542 102.459 243.623L102.573 284.05L0.504085 284.339C0.98452 265.444 0.44252 246.408 0.385528 227.501L0.000366211 122.472Z" fill="url(#paint3_linear_27_18)"/>
</g>
<defs>
<linearGradient id="paint0_linear_27_18" x1="245.187" y1="264.573" x2="112.307" y2="392.209" gradientUnits="userSpaceOnUse">
<stop stop-color="#FF6060"/>
<stop offset="1" stop-color="#830000"/>
</linearGradient>
<linearGradient id="paint1_linear_27_18" x1="295.681" y1="14.4004" x2="161.809" y2="141.353" gradientUnits="userSpaceOnUse">
<stop stop-color="#FF6060"/>
<stop offset="1" stop-color="#830000"/>
</linearGradient>
<linearGradient id="paint2_linear_27_18" x1="423.086" y1="141.74" x2="233.573" y2="313.216" gradientUnits="userSpaceOnUse">
<stop stop-color="#E02E2E"/>
<stop offset="1" stop-color="#B61717"/>
</linearGradient>
<linearGradient id="paint3_linear_27_18" x1="169.348" y1="89.6673" x2="-13.8822" y2="267.19" gradientUnits="userSpaceOnUse">
<stop stop-color="#FF6060"/>
<stop offset="1" stop-color="#860000"/>
</linearGradient>
<clipPath id="clip0_27_18">
<rect width="408" height="406" fill="white"/>
</clipPath>
</defs>
</svg>
