<svg width="1200" height="1200" viewBox="0 0 1200 1200" fill="none" xmlns="http://www.w3.org/2000/svg">
<g clip-path="url(#clip0_31_23)">
<path fill-rule="evenodd" clip-rule="evenodd" d="M600 200C820.92 200 1000 383.597 1000 610.117C1000 791.277 885.52 944.958 726.68 999.238C706.4 1003.28 699.2 990.471 699.2 979.551C699.2 966.031 699.68 921.872 699.68 866.992C699.68 828.752 686.88 803.794 672.52 791.074C761.6 780.914 855.2 746.231 855.2 588.711C855.2 543.911 839.68 507.353 814 478.633C818.16 468.273 831.88 426.558 810.08 370.078C810.08 370.078 776.56 359.089 700.2 412.129C668.24 403.049 634 398.48 600 398.32C566 398.48 531.8 403.049 499.88 412.129C423.44 359.089 389.84 370.078 389.84 370.078C368.12 426.558 381.84 468.273 385.96 478.633C360.4 507.353 344.76 543.911 344.76 588.711C344.76 745.831 438.16 781.046 527 791.406C515.56 801.646 505.2 819.71 501.6 846.23C478.8 856.71 420.88 874.848 385.2 812.168C385.2 812.168 364.04 772.763 323.88 769.883C323.88 769.883 284.88 769.365 321.16 794.805C321.16 794.805 347.36 807.405 365.56 854.805C365.56 854.805 389.04 928.003 500.32 903.203C500.52 937.483 500.88 969.791 500.88 979.551C500.88 990.391 493.52 1003.08 473.56 999.277C314.6 945.077 200 791.317 200 610.117C200 383.597 379.12 200 600 200Z" fill="url(#paint0_linear_31_23)"/>
</g>
<defs>
<linearGradient id="paint0_linear_31_23" x1="600" y1="200" x2="600" y2="1000" gradientUnits="userSpaceOnUse">
<stop stop-color="#5B2E2E"/>
<stop offset="1" stop-color="#E02E2E"/>
</linearGradient>
<clipPath id="clip0_31_23">
<rect width="800" height="800" fill="white" transform="translate(200 200)"/>
</clipPath>
</defs>
</svg>
