<svg width="1200" height="1200" viewBox="0 0 1200 1200" fill="none" xmlns="http://www.w3.org/2000/svg">
<path fill-rule="evenodd" clip-rule="evenodd" d="M372.121 600C372.121 574.595 376.34 550.24 383.871 527.395L252.057 426.738C226.368 478.898 211.894 537.671 211.894 600C211.894 662.275 226.35 721.013 252.004 773.138L383.746 672.284C376.287 649.546 372.121 625.28 372.121 600Z" fill="#5B2E2E"/>
<path fill-rule="evenodd" clip-rule="evenodd" d="M603.56 368.889C658.75 368.889 708.598 388.444 747.765 420.444L861.704 306.666C792.273 246.222 703.257 208.889 603.56 208.889C448.781 208.889 315.757 297.404 252.057 426.738L383.871 527.395C414.243 435.2 500.819 368.889 603.56 368.889Z" fill="#830000"/>
<path fill-rule="evenodd" clip-rule="evenodd" d="M603.56 831.111C500.819 831.111 414.243 764.8 383.871 672.604L252.057 773.244C315.757 902.595 448.781 991.111 603.56 991.111C699.091 991.111 790.296 957.191 858.749 893.635L733.629 796.906C698.326 819.146 653.872 831.111 603.56 831.111Z" fill="#860000"/>
<path fill-rule="evenodd" clip-rule="evenodd" d="M977.424 600C977.424 576.889 973.864 552 968.523 528.889H603.561V680H813.636C803.132 731.52 774.541 771.129 733.629 796.906L858.749 893.635C930.656 826.898 977.424 727.484 977.424 600Z" fill="#5B2E2E"/>
</svg>
