<svg width="800" height="800" viewBox="0 0 800 800" fill="none" xmlns="http://www.w3.org/2000/svg">
<path d="M600 200V225H625V200H600ZM169.036 225H600V175H169.036V225ZM625 200V143.534H575V200H625ZM520.37 52.7891L160.451 104.206L167.522 153.703L527.44 102.286L520.37 52.7891ZM160.451 104.206C130.546 108.478 108.333 134.09 108.333 164.298H158.333C158.333 158.972 162.25 154.457 167.522 153.703L160.451 104.206ZM625 143.534C625 87.7508 575.593 44.9001 520.37 52.7891L527.44 102.286C552.543 98.7008 575 118.178 575 143.534H625ZM169.036 175C163.125 175 158.333 170.209 158.333 164.298H108.333C108.333 197.823 135.511 225 169.036 225V175Z" fill="white"/>
<path d="M266.667 400H533.333" stroke="white" stroke-width="50" stroke-linecap="round"/>
<path d="M266.667 516.667H450" stroke="white" stroke-width="50" stroke-linecap="round"/>
<path d="M133.333 200V633.333C133.333 688.563 178.105 733.333 233.333 733.333H566.667C621.897 733.333 666.667 688.563 666.667 633.333V466.666M133.333 200V166.667M133.333 200H566.667C621.897 200 666.667 244.772 666.667 300V333.333" stroke="white" stroke-width="50" stroke-linecap="round"/>
</svg>
