<svg width="800" height="800" viewBox="0 0 800 800" fill="none" xmlns="http://www.w3.org/2000/svg">
<path d="M300 0L250 12.5V50H300V0ZM300 50V100H250V50H249.7C186.75 50.7 140.7 48.5 103.1 69.2C84.3 79.6 69.35 97.2 61.1 119.15C52.9 141.05 50 167.15 50 200V600C50 632.85 52.9 658.9 61.1 680.85C69.35 702.8 84.3 720.25 103.1 730.65C140.75 751.4 186.8 749.25 249.7 750H550.3C613.2 749.25 659.2 751.4 696.85 730.65C716.33 719.603 731.198 701.932 738.75 680.85C747 658.9 750 631.35 750 600V200C750 167.1 747 141.05 738.75 119.15C731.179 98.0531 716.319 80.3559 696.85 69.25C659.2 48.45 613.2 50.75 550.3 50H550V100H500V50H300ZM500 50H550V0L500 12.5V50ZM250.3 250H550C613 250.7 654.35 253 672.65 263.05C681.8 268.15 687.1 273.7 691.95 286.7C696.85 299.7 699.95 350 699.95 350V600C699.95 629.6 696.85 650.25 691.95 663.25C687.1 676.25 681.8 681.85 672.65 686.9C654.35 697 612.95 699.25 550 700H250C187 699.25 145.65 697 127.3 686.9C118.15 681.85 112.85 676.25 108 663.25C103.1 650.25 100 629.6 100 600V350C100 320.35 103.1 299.7 108 286.7C112.85 273.7 118.15 268.15 127.3 263.05C145.65 252.95 187.1 250.7 250.3 250Z" fill="white"/>
</svg>
