<svg width="800" height="800" viewBox="0 0 800 800" fill="none" xmlns="http://www.w3.org/2000/svg">
<path fill-rule="evenodd" clip-rule="evenodd" d="M400 275C330.965 275 275 330.964 275 400C275 469.037 330.965 525 400 525C469.037 525 525 469.037 525 400C525 330.964 469.037 275 400 275ZM325 400C325 358.58 358.58 325 400 325C441.42 325 475 358.58 475 400C475 441.42 441.42 475 400 475C358.58 475 325 441.42 325 400Z" fill="white"/>
<path fill-rule="evenodd" clip-rule="evenodd" d="M399.157 41.6668C384.343 41.6664 371.973 41.6664 361.82 42.3591C351.25 43.0804 341.267 44.6351 331.587 48.6444C309.126 57.9481 291.281 75.7931 281.977 98.2541C277.134 109.947 275.822 122.271 275.321 135.665C274.919 146.433 269.485 155.417 261.465 160.047C253.446 164.677 242.948 164.891 233.422 159.856C221.571 153.592 210.243 148.566 197.694 146.914C173.591 143.741 149.214 150.273 129.926 165.073C121.614 171.451 115.276 179.32 109.366 188.113C103.689 196.56 97.5057 207.272 90.098 220.102L89.2564 221.56C81.8484 234.391 75.6644 245.101 71.1874 254.241C66.527 263.756 62.8814 273.18 61.5137 283.567C58.3404 307.671 64.8724 332.047 79.672 351.337C87.376 361.373 97.391 368.673 108.739 375.803C117.865 381.537 122.929 390.737 122.929 400C122.928 409.26 117.864 418.46 108.739 424.193C97.3897 431.323 87.3737 438.623 79.669 448.663C64.869 467.95 58.3374 492.327 61.5104 516.43C62.878 526.817 66.5237 536.243 71.184 545.757C75.661 554.897 81.845 565.607 89.2527 578.437L90.0947 579.897C97.5024 592.727 103.686 603.437 109.363 611.883C115.272 620.677 121.611 628.547 129.923 634.923C149.211 649.723 173.588 656.257 197.691 653.083C210.239 651.43 221.567 646.407 233.417 640.143C242.944 635.107 253.443 635.32 261.463 639.953C269.484 644.583 274.919 653.567 275.321 664.337C275.822 677.73 277.134 690.053 281.977 701.747C291.281 724.207 309.126 742.053 331.587 751.357C341.267 755.367 351.25 756.92 361.82 757.64C371.973 758.333 384.343 758.333 399.157 758.333H400.84C415.657 758.333 428.023 758.333 438.18 757.64C448.75 756.92 458.733 755.367 468.413 751.357C490.873 742.053 508.72 724.207 518.023 701.747C522.867 690.053 524.177 677.73 524.677 664.333C525.08 653.567 530.513 644.583 538.533 639.95C546.553 635.32 557.053 635.107 566.58 640.14C578.43 646.403 589.757 651.43 602.307 653.08C626.41 656.253 650.787 649.723 670.073 634.923C678.387 628.543 684.723 620.677 690.633 611.883C696.31 603.437 702.493 592.727 709.9 579.897L710.743 578.437C718.15 565.607 724.337 554.893 728.813 545.753C733.473 536.24 737.117 526.817 738.487 516.43C741.66 492.323 735.127 467.947 720.327 448.66C712.623 438.62 702.607 431.323 691.26 424.193C682.133 418.46 677.07 409.26 677.07 399.997C677.07 390.737 682.133 381.54 691.257 375.807C702.61 368.677 712.627 361.38 720.33 351.337C735.13 332.05 741.663 307.673 738.49 283.569C737.12 273.182 733.477 263.758 728.817 254.243C724.34 245.104 718.157 234.394 710.747 221.565L709.907 220.106C702.497 207.275 696.313 196.563 690.637 188.116C684.727 179.322 678.39 171.453 670.077 165.075C650.79 150.275 626.413 143.743 602.307 146.917C589.76 148.569 578.433 153.594 566.583 159.857C557.057 164.893 546.557 164.679 538.537 160.048C530.517 155.418 525.08 146.432 524.677 135.664C524.177 122.269 522.867 109.947 518.023 98.2541C508.72 75.7931 490.873 57.9481 468.413 48.6444C458.733 44.6351 448.75 43.0804 438.18 42.3591C428.023 41.6664 415.657 41.6664 400.84 41.6668H399.157ZM350.72 94.8384C353.293 93.7731 357.2 92.7908 365.223 92.2431C373.473 91.6804 384.127 91.6668 400 91.6668C415.873 91.6668 426.527 91.6804 434.773 92.2431C442.8 92.7908 446.707 93.7731 449.277 94.8384C459.487 99.0674 467.6 107.179 471.827 117.388C473.163 120.609 474.267 125.629 474.713 137.532C475.7 163.945 489.333 189.376 513.537 203.349C537.737 217.323 566.58 216.413 589.947 204.063C600.477 198.497 605.38 196.944 608.833 196.489C619.79 195.047 630.87 198.016 639.637 204.743C641.847 206.437 644.65 209.33 649.137 216.005C653.75 222.868 659.087 232.087 667.023 245.833C674.96 259.58 680.277 268.813 683.913 276.238C687.45 283.461 688.553 287.336 688.917 290.096C690.36 301.052 687.39 312.132 680.663 320.899C678.54 323.665 674.747 327.133 664.657 333.47C642.28 347.533 627.073 372.053 627.07 399.997C627.07 427.943 642.277 452.467 664.657 466.53C674.743 472.867 678.537 476.333 680.66 479.1C687.387 487.867 690.357 498.947 688.913 509.903C688.55 512.663 687.447 516.537 683.91 523.76C680.273 531.183 674.957 540.417 667.02 554.163C659.083 567.91 653.747 577.13 649.133 583.993C644.647 590.667 641.843 593.56 639.633 595.253C630.867 601.983 619.787 604.95 608.83 603.51C605.377 603.053 600.473 601.5 589.943 595.937C566.577 583.583 537.733 582.677 513.53 596.65C489.333 610.623 475.7 636.053 474.713 662.467C474.267 674.37 473.163 679.39 471.827 682.613C467.6 692.82 459.487 700.933 449.277 705.163C446.707 706.227 442.8 707.21 434.773 707.757C426.527 708.32 415.873 708.333 400 708.333C384.127 708.333 373.473 708.32 365.223 707.757C357.2 707.21 353.293 706.227 350.72 705.163C340.513 700.933 332.4 692.82 328.171 682.613C326.837 679.39 325.732 674.37 325.286 662.467C324.299 636.057 310.666 610.623 286.463 596.65C262.261 582.677 233.421 583.587 210.053 595.937C199.522 601.503 194.621 603.057 191.165 603.51C180.209 604.953 169.128 601.983 160.361 595.257C158.153 593.563 155.348 590.67 150.862 583.993C146.25 577.133 140.912 567.913 132.975 554.167C125.038 540.42 119.724 531.187 116.087 523.763C112.549 516.54 111.446 512.663 111.083 509.903C109.64 498.947 112.609 487.867 119.337 479.1C121.459 476.337 125.254 472.867 135.34 466.53C157.719 452.47 172.927 427.947 172.929 400.003C172.93 372.053 157.722 347.53 135.34 333.467C125.256 327.13 121.462 323.662 119.34 320.897C112.613 312.13 109.644 301.05 111.086 290.093C111.449 287.334 112.552 283.458 116.09 276.236C119.727 268.81 125.042 259.578 132.978 245.831C140.915 232.084 146.253 222.865 150.865 216.003C155.352 209.328 158.156 206.435 160.364 204.741C169.132 198.013 180.212 195.044 191.168 196.487C194.624 196.942 199.525 198.494 210.058 204.061C233.424 216.412 262.264 217.321 286.465 203.348C310.666 189.376 324.299 163.946 325.286 137.534C325.732 125.63 326.837 120.609 328.171 117.388C332.4 107.179 340.513 99.0674 350.72 94.8384Z" fill="white"/>
</svg>
