<svg width="800" height="800" viewBox="0 0 800 800" fill="none" xmlns="http://www.w3.org/2000/svg">
<path d="M66.6666 400C66.6666 274.292 66.6666 211.438 105.719 172.386C144.772 133.333 207.625 133.333 333.333 133.333H466.667C592.373 133.333 655.23 133.333 694.28 172.386C733.333 211.438 733.333 274.292 733.333 400C733.333 525.707 733.333 588.563 694.28 627.613C655.23 666.667 592.373 666.667 466.667 666.667H333.333C207.625 666.667 144.772 666.667 105.719 627.613C66.6666 588.563 66.6666 525.707 66.6666 400Z" stroke="#403A3A" stroke-width="50"/>
<path d="M333.333 533.333H200" stroke="#403A3A" stroke-width="50" stroke-linecap="round"/>
<path d="M466.667 533.333H416.667" stroke="#403A3A" stroke-width="50" stroke-linecap="round"/>
<path d="M66.6666 333.333H733.333" stroke="#403A3A" stroke-width="50" stroke-linecap="round"/>
</svg>
