<svg width="800" height="800" viewBox="0 0 800 800" fill="none" xmlns="http://www.w3.org/2000/svg">
<mask id="mask0_61_12" style="mask-type:luminance" maskUnits="userSpaceOnUse" x="233" y="333" width="334" height="67">
<path d="M566.667 333.333H233.333V400H566.667V333.333Z" fill="white"/>
</mask>
<g mask="url(#mask0_61_12)">
<path d="M533.333 400C529 400.054 524.697 399.26 520.667 397.667C516.57 395.937 512.84 393.45 509.667 390.337C506.67 387.264 504.29 383.64 502.667 379.667C500.987 375.534 500.083 371.127 500 366.667C500.037 357.92 503.51 349.544 509.667 343.334C512.75 340.11 516.507 337.607 520.667 336.004C526.77 333.49 533.48 332.845 539.947 334.15C546.413 335.457 552.35 338.654 557 343.334C563.157 349.544 566.63 357.92 566.667 366.667C566.583 371.127 565.68 375.534 564 379.667C562.377 383.64 559.997 387.264 557 390.337C553.887 393.424 550.19 395.867 546.13 397.527C542.07 399.184 537.72 400.024 533.333 400Z" fill="#403A3A"/>
<path d="M400 400C395.667 400.054 391.363 399.26 387.333 397.667C383.236 395.937 379.507 393.45 376.333 390.337C373.337 387.264 370.957 383.64 369.333 379.667C367.653 375.534 366.75 371.127 366.667 366.667C366.703 357.92 370.177 349.544 376.333 343.334C379.417 340.11 383.173 337.607 387.333 336.004C393.436 333.49 400.146 332.845 406.613 334.15C413.08 335.457 419.017 338.654 423.667 343.334C429.823 349.544 433.297 357.92 433.333 366.667C433.25 371.127 432.347 375.534 430.667 379.667C429.043 383.64 426.663 387.264 423.667 390.337C420.553 393.424 416.856 395.867 412.796 397.527C408.736 399.184 404.387 400.024 400 400Z" fill="#403A3A"/>
<path d="M266.667 400C262.333 400.054 258.03 399.26 254 397.667C249.904 395.937 246.173 393.45 243 390.337C240.002 387.264 237.624 383.64 236 379.667C234.32 375.534 233.417 371.127 233.333 366.667C233.37 357.92 236.842 349.544 243 343.334C246.083 340.11 249.839 337.607 254 336.004C260.102 333.49 266.812 332.845 273.28 334.15C279.748 335.457 285.683 338.654 290.333 343.334C296.491 349.544 299.963 357.92 300 366.667C299.917 371.127 299.013 375.534 297.334 379.667C295.709 383.64 293.331 387.264 290.333 390.337C287.218 393.424 283.525 395.867 279.464 397.527C275.402 399.184 271.054 400.024 266.667 400Z" fill="#403A3A"/>
</g>
<path d="M166.65 551.667V663.334C166.641 677.007 170.635 690.38 178.139 701.807C185.644 713.234 196.331 722.217 208.881 727.64C221.43 733.064 235.292 734.694 248.757 732.327C262.222 729.964 274.701 723.71 284.652 714.337L371.65 632.337H400.65C584.65 632.337 733.983 505.67 733.983 349.004C733.983 192.337 584.65 65.6699 400.65 65.6699C216.651 65.6699 67.3176 192.67 67.3176 349.004C68.0666 387.964 77.4203 426.274 94.7083 461.194C111.996 496.117 136.791 526.784 167.318 551L166.65 551.667Z" stroke="#403A3A" stroke-width="50" stroke-linecap="round" stroke-linejoin="round"/>
</svg>
