<svg width="800" height="800" viewBox="0 0 800 800" fill="none" xmlns="http://www.w3.org/2000/svg">
<path d="M147 316H654M259.667 147V203.333M541.333 147V203.333M231.5 400.5H287.833M372.333 400.5H428.667M513.167 400.5H569.5M231.5 485H287.833M372.333 485H428.667M513.167 485H569.5M231.5 569.5H287.833M372.333 569.5H428.667M513.167 569.5H569.5M237.133 654H563.867C595.416 654 611.192 654 623.242 647.86C633.841 642.46 642.46 633.841 647.86 623.242C654 611.192 654 595.416 654 563.867V293.467C654 261.917 654 246.142 647.86 234.092C642.46 223.492 633.841 214.874 623.242 209.473C611.192 203.333 595.416 203.333 563.867 203.333H237.133C205.584 203.333 189.809 203.333 177.759 209.473C167.159 214.874 158.541 223.492 153.14 234.092C147 246.142 147 261.917 147 293.467V563.867C147 595.416 147 611.192 153.14 623.242C158.541 633.841 167.159 642.46 177.759 647.86C189.809 654 205.584 654 237.133 654Z" stroke="#403A3A" stroke-width="66.6667" stroke-linecap="round"/>
</svg>
