<svg width="800" height="800" viewBox="0 0 800 800" fill="none" xmlns="http://www.w3.org/2000/svg">
<g clip-path="url(#clip0_43_30)">
<path fill-rule="evenodd" clip-rule="evenodd" d="M466.667 66.6665V250C466.667 277.614 489.053 300 516.667 300H700V533.333C700 570.153 670.153 600 633.333 600H566.667V666.666C566.667 703.486 536.82 733.333 500 733.333H200C163.181 733.333 133.333 703.486 133.333 666.666V266.666C133.333 229.847 163.181 200 200 200H266.667V133.333C266.667 96.5142 296.514 66.6665 333.333 66.6665H466.667ZM266.667 266.666H200V666.666H500V600H333.333C296.514 600 266.667 570.153 266.667 533.333V266.666ZM533.333 68.1118C545.863 70.7648 557.47 76.9968 566.667 86.1928L680.473 200C689.67 209.196 695.903 220.802 698.553 233.333H533.333V68.1118Z" fill="#403A3A"/>
</g>
<defs>
<clipPath id="clip0_43_30">
<rect width="800" height="800" fill="white"/>
</clipPath>
</defs>
</svg>
