<svg width="800" height="800" viewBox="0 0 800 800" fill="none" xmlns="http://www.w3.org/2000/svg">
<path d="M642.854 372.254L417.181 149.131L417.231 149.236C391.797 123.744 358.276 110.944 324.916 111C291.604 110.944 258.082 123.744 232.646 149.236C207.162 174.664 194.366 208.133 194.414 241.506C194.366 274.862 207.161 308.379 232.646 333.816L285.906 386.504C284.3 386.455 282.692 386.455 281.09 386.455C237.412 386.455 197.733 397.438 168.045 416.034C153.227 425.356 140.846 436.599 132.039 449.706C123.184 462.765 118 477.785 118 493.64V582.642C118 598.489 123.184 613.518 132.039 626.577C145.304 646.209 166.384 661.796 192.084 672.74C217.831 683.667 248.346 689.828 281.09 689.884C324.709 689.828 364.391 678.851 394.074 660.249C408.941 650.976 421.271 639.685 430.13 626.578C438.941 613.519 444.121 598.491 444.121 582.644V542.909L458.315 556.957L458.266 556.844C483.699 582.328 517.221 595.136 550.58 595.079C583.895 595.136 617.414 582.328 642.853 556.9C668.338 531.407 681.084 497.946 681.084 464.574C681.086 431.209 668.339 397.739 642.854 372.254ZM270.055 279.109C248.454 257.459 248.454 221.866 270.363 199.955C280.93 189.385 295.021 183.533 310.05 183.533L270.055 279.109ZM143.903 493.64C143.951 483.435 147.113 473.699 153.493 464.159C159.089 455.826 167.322 447.842 177.628 440.749L375.842 556.745C371.335 559.226 366.57 561.561 361.539 563.684C338.799 573.37 311.032 579.07 281.093 579.07C241.091 579.126 205.035 568.865 179.603 552.855C166.86 544.831 156.809 535.443 150.073 525.4C147.58 521.663 145.513 517.887 143.904 514.003L143.903 493.64ZM418.219 582.644C418.219 592.849 415.006 602.592 408.638 612.117C399.098 626.318 382.161 639.474 359.937 648.91C337.763 658.337 310.512 663.987 281.091 663.987C241.819 663.987 206.437 653.879 181.831 638.34C169.498 630.615 159.859 621.552 153.493 612.117C147.114 602.592 143.951 592.849 143.903 582.644V545.916C156.438 559.794 173.538 571.353 193.689 579.896C218.866 590.58 248.862 596.691 281.091 596.691C324.036 596.691 362.995 585.852 391.899 567.72C402.052 561.405 410.912 554.102 418.219 545.964V582.644ZM418.219 514.003C417.912 514.781 417.595 515.502 417.181 516.28C415.787 519.393 414.073 522.392 412.05 525.399C407.701 531.925 401.845 538.093 394.905 543.84L198.663 429.036C199.854 428.517 200.997 427.893 202.186 427.43C224.359 418.003 251.611 412.353 281.093 412.353C292.693 412.353 303.94 413.236 314.66 414.898C340.254 418.781 362.943 427.066 380.298 437.943C382.421 439.24 384.444 440.643 386.357 442.045C395.734 448.725 403.143 456.133 408.376 463.858C408.481 463.955 408.583 464.061 408.639 464.158C415.007 473.698 418.22 483.434 418.22 493.639V514.003H418.219ZM620.887 534.874C601.409 554.312 576.07 563.99 550.581 563.99C525.042 563.99 499.713 554.353 480.23 534.874L480.178 534.826L444.122 499.184V493.64C444.122 477.784 438.943 462.764 430.131 449.706C419.05 433.389 402.628 419.869 382.627 409.509C385.115 403.032 388.273 395.98 392.16 388.741C403.143 368.112 419.619 345.731 441.431 328.538C463.135 311.387 489.82 299.162 522.819 297.29L620.835 394.22H620.887C640.314 413.699 650 439.087 650 464.572C650 490.065 640.314 515.454 620.887 534.874Z" fill="#403A3A"/>
</svg>
