<svg width="800" height="800" viewBox="0 0 800 800" fill="none" xmlns="http://www.w3.org/2000/svg">
<path d="M286.514 374.769C216.882 374.769 160.433 318.288 160.433 248.615V147.692C160.433 133.76 171.725 122.462 185.649 122.462H210.865C224.79 122.462 236.082 111.163 236.082 97.2308C236.082 83.2983 224.79 72 210.865 72H185.649C143.871 72 110 105.89 110 147.692V248.615C110.066 306.475 138.535 360.615 186.153 393.44C231.699 433.617 258.847 490.679 261.298 551.385C261.298 648.927 340.326 728 437.812 728C535.299 728 614.327 648.927 614.327 551.385V522.622C668.265 508.689 700.698 453.641 686.773 399.672C672.844 345.703 617.832 313.252 563.894 327.184C509.956 341.121 477.523 396.165 491.448 450.134C500.621 485.684 528.364 513.443 563.894 522.622V551.385C563.894 621.057 507.445 677.538 437.812 677.538C368.18 677.538 311.731 621.057 311.731 551.385C314.308 490.604 341.647 433.527 387.38 393.44C434.807 360.499 463.079 306.384 463.029 248.615V147.692C463.029 105.89 429.158 72 387.38 72H362.163C348.239 72 336.947 83.2983 336.947 97.2308C336.947 111.163 348.239 122.462 362.163 122.462H387.38C401.304 122.462 412.596 133.76 412.596 147.692V248.615C412.596 318.288 356.147 374.769 286.514 374.769ZM589.111 475.692C561.257 475.692 538.678 453.101 538.678 425.231C538.678 397.361 561.257 374.769 589.111 374.769C616.964 374.769 639.543 397.361 639.543 425.231C639.543 453.101 616.964 475.692 589.111 475.692Z" fill="#403A3A"/>
</svg>
