<svg width="800" height="800" viewBox="0 0 800 800" fill="none" xmlns="http://www.w3.org/2000/svg">
<path d="M676.663 210.695C685.203 219.236 699.052 219.237 707.594 210.695C716.135 202.153 716.135 188.305 707.594 179.763L621.237 93.4062C612.696 84.8646 598.847 84.8646 590.305 93.4062C581.764 101.948 581.764 115.796 590.305 124.337L618.018 152.05L573.694 196.375L487.12 109.803C478.579 101.261 464.73 101.261 456.189 109.803C447.647 118.344 447.647 132.192 456.189 140.734L478.439 162.984L429.708 211.715L489.825 271.832C498.367 280.374 498.367 294.222 489.825 302.763C481.285 311.305 467.435 311.306 458.894 302.763L398.776 242.646L364.954 276.468L425.071 336.586C433.613 345.127 433.613 358.975 425.071 367.517C416.531 376.059 402.682 376.06 394.14 367.517L334.023 307.4L269.829 371.596C261.287 380.138 261.287 393.986 269.829 402.527L398.478 531.176C407.013 539.714 420.871 539.717 429.409 531.176L638.018 322.566L660.269 344.818C668.809 353.359 682.658 353.36 691.2 344.818C699.742 336.276 699.742 322.428 691.2 313.886L604.624 227.308L648.948 182.983L676.663 210.695Z" fill="#403A3A"/>
<path d="M231.212 452.501C222.67 461.042 222.67 474.891 231.212 483.432L258.925 511.145L93.4062 676.663C84.8646 685.203 84.8646 699.052 93.4062 707.594C101.947 716.135 115.796 716.135 124.337 707.594L289.855 542.078L317.566 569.791C326.102 578.329 339.96 578.331 348.498 569.791L361.863 556.425L244.575 439.137L231.212 452.501Z" fill="#403A3A"/>
</svg>
